<svg aria-hidden="true" width="196.26" viewBox="100 50 294.389 108.746" height="70.739" xmlns="http://www.w3.org/2000/svg">
    <g transform="translate(1.302 -35.908)">
        <path fill="currentCOlor" stroke="null" d="M178.103 112.703c-7.338-7.366-17.095-11.423-27.472-11.423-10.378 0-20.135 4.057-27.473 11.423-6.965 6.992-10.957 16.17-11.345 25.993a1.23 1.23 0 0 0-.018.476c-.01.369-.016.738-.016 1.108 0 10.418 4.041 20.211 11.38 27.578a39.217 39.217 0 0 0 6.546 5.296 118.789 118.789 0 0 1-3.974-1.632c-4.94-2.1-8.84-3.76-14.312-2.468a1.222 1.222 0 0 0 .557 2.378c4.697-1.11 8.098.337 12.805 2.34 5.77 2.454 12.951 5.508 25.85 5.508 10.377 0 20.134-4.056 27.472-11.422 7.338-7.367 11.38-17.16 11.38-27.578 0-10.417-4.042-20.21-11.38-27.577zm.683 50.77-31.174 13.24a36.296 36.296 0 0 1-6.456-1.12l41.321-17.549a36.468 36.468 0 0 1-3.69 5.429zm-4.402 4.522a36.015 36.015 0 0 1-20.475 8.695zm9.721-13.273a1.21 1.21 0 0 0-.207.066l-46.282 19.656a35.902 35.902 0 0 1-4.352-2.013l52.447-22.274a36.187 36.187 0 0 1-1.606 4.565zm2.292-7.508-55.717 23.662a36.484 36.484 0 0 1-3.303-2.459l59.564-25.296a36.852 36.852 0 0 1-.544 4.093zm-67.155 11.63 66.521-28.25c.316 1.16.574 2.34.774 3.533l-65.309 27.736a36.41 36.41 0 0 1-1.986-3.018zm-2.61-5.404 34.466-14.638.012-.005 32.602-13.845a36.113 36.113 0 0 1 1.326 3.298l-66.97 28.442a36.16 36.16 0 0 1-1.436-3.252zm.286-27.036 16.984 17.05-4.15 1.762a1.214 1.214 0 0 0-.323-.588l-13.941-13.994c.39-1.44.867-2.853 1.43-4.23zm3.124-5.982 20.244 20.32-3.966 1.684-18.33-18.4a36.282 36.282 0 0 1 2.052-3.604zm7.476 25.742-3.965 1.684-9.299-9.334c.08-1.715.28-3.408.592-5.07zm-13.267-4.199 6.884 6.91-5.3 2.251a36.692 36.692 0 0 1-1.584-9.16zm11.504-28.382a36.775 36.775 0 0 1 4.192-3.401v7.61zm6.626-4.954a35.903 35.903 0 0 1 4.055-2.034v17.71l-4.055-4.071zm6.489-2.964a35.975 35.975 0 0 1 4.055-1.125v26.278l-4.055-4.07zm6.488-1.563a36.665 36.665 0 0 1 4.056-.357v33.12l-.327.14-3.729-3.744v-29.159zm30.011 21.74-4.055 1.723v-17.383a36.739 36.739 0 0 1 4.055 3.273zm-6.488 2.756-4.056 1.723v-23.726c1.391.59 2.745 1.27 4.056 2.034zm-6.49 2.756-4.055 1.722v-28.535c1.377.296 2.73.671 4.056 1.124zm-6.488 2.756-4.056 1.722v-32.087c1.367.045 2.72.164 4.056.357zm26.711-11.344-4.811 2.043v-8.868a36.567 36.567 0 0 1 4.811 6.825zm-58.58-7.456 22.635 22.721-3.965 1.684-21.246-21.327a36.935 36.935 0 0 1 2.576-3.078zm-1.242 48.54 64.08-27.213c.117 1.203.177 2.419.177 3.643l-.002.144-61.673 26.192c-.166-.16-.332-.321-.496-.485a37.253 37.253 0 0 1-2.086-2.28z" />
        <text letter-spacing="1px" font-weight="bolder" font-family="-apple-system, BlinkMacSystemFont, 'egoe UI', Roboto, 'Helvetica Neue', Arial, 'Noto Sans', sans-serif, 'Apple Color Emoji', 'Segoe
UI Emoji', 'Segoe UI Symbol', 'Noto Color Emoji'" xml:space="preserve" text-anchor="middle" text-rendering="geometricPrecision" transform="matrix(.7694 0 0 1 86.303 52.164)" font-size="35" x="220.051" y="85" fill="currentColor" stroke="null">
{{ .PodName }}
</text>
        <text xml:space="preserve" font-family="-apple-system, BlinkMacSystemFont, 'Segoe UI', Roboto, 'Helvetica Neue', Arial, 'Noto Sans', sans-serif, 'Apple Color Emoji', 'Segoe
UI Emoji', 'Segoe UI Symbol', 'Noto Color Emoji'" stroke-width="0" fill="currentColor" stroke="null" font-size="22" y="167.245" x="198.372">
a Yarn.Social pod.
</text>
    </g>
</svg>
